<?xml version="1.0" standalone="no"?>
<!DOCTYPE svg PUBLIC "-//W3C//DTD SVG 20010904//EN"
 "http://www.w3.org/TR/2001/REC-SVG-20010904/DTD/svg10.dtd">
<svg version="1.0" xmlns="http://www.w3.org/2000/svg"
 width="512.000000pt" height="512.000000pt" viewBox="0 0 512.000000 512.000000"
 preserveAspectRatio="xMidYMid meet">
<metadata>
Created by potrace 1.14, written by Peter Selinger 2001-2017
</metadata>
<g transform="translate(0.000000,512.000000) scale(0.100000,-0.100000)"
fill="#000000" stroke="none">
<path d="M1185 4459 c-38 -3 -246 -5 -461 -3 -318 2 -396 0 -410 -11 -17 -12
-19 -30 -18 -217 0 -189 8 -503 20 -813 3 -71 7 -182 9 -245 5 -135 5 -785 1
-915 -2 -49 -7 -171 -11 -270 -3 -99 -8 -220 -10 -270 -2 -49 -6 -166 -10
-260 -11 -267 -18 -591 -16 -696 1 -19 7 -44 15 -54 14 -19 33 -20 626 -20
415 -1 614 3 620 10 5 6 10 76 12 156 4 192 12 183 -152 174 -69 -3 -141 -8
-160 -10 -83 -10 -320 -17 -344 -11 -50 12 -52 23 -61 311 -3 110 -8 251 -10
314 -23 638 -23 1663 0 2241 9 234 16 265 60 276 23 6 261 -2 345 -11 19 -2
96 -7 171 -11 107 -5 138 -4 144 6 5 8 7 61 6 119 -4 157 -7 196 -15 210 -8
13 -197 13 -351 0z"/>
<path d="M3634 4459 c-6 -8 -13 -52 -14 -99 -2 -47 -4 -112 -5 -145 -3 -99 -5
-98 148 -91 73 4 148 9 167 11 19 2 101 7 181 11 164 8 185 2 194 -49 35 -207
40 -1633 10 -2707 -11 -368 -12 -376 -79 -387 -23 -4 -43 -7 -46 -6 -3 0 -57
4 -120 7 -63 4 -128 9 -145 11 -87 11 -282 15 -295 6 -12 -9 -15 -37 -13 -161
1 -86 6 -156 12 -163 8 -10 141 -13 601 -12 578 0 592 1 607 20 13 17 14 64 8
335 -3 173 -8 358 -10 410 -41 982 -45 1366 -20 2000 22 564 25 974 7 992 -10
10 -98 13 -410 13 -218 1 -480 4 -582 9 -153 7 -187 6 -196 -5z"/>
<path d="M2430 3114 c-264 -70 -436 -300 -426 -574 5 -145 56 -263 162 -372
161 -166 421 -213 634 -116 115 53 215 151 269 263 43 87 51 120 58 220 5 75
2 104 -17 172 -50 186 -192 337 -369 394 -84 27 -233 33 -311 13z"/>
<path d="M1610 1460 l0 -240 43 0 42 0 -1 60 c0 36 4 60 10 61 6 1 43 0 82 -1
71 -2 130 14 158 43 65 65 64 207 -2 270 -42 40 -73 47 -208 47 l-124 0 0
-240z m233 161 c29 -11 55 -46 62 -82 7 -37 -13 -95 -40 -113 -30 -20 -160
-23 -167 -3 -6 17 -10 186 -4 195 7 11 120 14 149 3z"/>
<path d="M2049 1488 c-2 -224 -1 -259 3 -263 2 -2 71 -5 155 -7 166 -3 162 -5
163 58 0 20 -4 21 -117 20 l-118 -1 -2 175 c-1 96 -2 187 -2 203 -1 25 -4 27
-41 27 l-40 0 -1 -212z"/>
<path d="M2408 1528 c3 -250 7 -269 62 -298 32 -17 188 -23 232 -8 46 15 77
46 83 82 2 17 6 113 9 214 l4 182 -44 0 c-28 0 -44 -5 -45 -12 -1 -7 0 -90 1
-183 1 -157 0 -173 -18 -195 -18 -22 -28 -25 -91 -25 -108 0 -106 -3 -106 223
l0 187 -45 3 -45 3 3 -173z"/>
<path d="M2885 1691 c-3 -2 -5 -109 -5 -238 l0 -233 40 0 c31 0 40 4 41 18 0
9 0 73 -1 142 -1 69 1 123 3 120 2 -3 33 -69 67 -147 54 -124 65 -143 85 -143
28 0 35 9 70 95 15 39 36 89 47 112 10 23 18 46 18 52 0 5 5 13 11 16 7 5 9
-35 6 -129 l-3 -136 43 0 c24 0 43 3 43 8 0 4 2 109 3 234 4 246 5 238 -52
238 -27 0 -31 -8 -101 -185 -40 -102 -74 -185 -76 -185 -4 0 -64 129 -64 136
0 3 -20 47 -44 99 -24 51 -47 103 -51 114 -5 17 -14 21 -41 19 -19 -1 -37 -4
-39 -7z"/>
<path d="M3430 1460 l0 -240 40 0 c22 0 40 3 41 8 1 4 2 28 3 54 1 26 5 50 9
54 4 4 44 7 89 6 66 0 90 4 119 20 50 28 80 85 81 151 1 70 -22 119 -73 156
-42 31 -42 31 -176 31 l-133 0 0 -240z m233 161 c41 -16 68 -68 61 -116 -3
-21 -10 -47 -14 -56 -15 -27 -62 -40 -131 -37 l-64 3 -2 95 c-2 52 -1 100 1
105 5 14 117 18 149 6z"/>
</g>
</svg>
